<svg width="512" height="512" viewBox="0 0 512 512" fill="none" xmlns="http://www.w3.org/2000/svg">
  <rect width="512" height="512" rx="120" fill="#FFF4E5"/>
  <circle cx="256" cy="178" r="64" fill="#FFD166"/>
  <path d="M120 315C172 266 226 248 282 264C340 281 369 331 424 301C384 386 310 424 230 401C174 385 138 353 120 315Z" fill="#FF8A00"/>
  <path d="M110 186L191 213L161 135L228 184L245 99L274 184L341 135L311 213L392 186L329 239L404 271L318 274L363 346L292 300L256 381L220 300L149 346L194 274L108 271L183 239L110 186Z" fill="#FFB703" opacity=".58"/>
</svg>
